<?xml version="1.0" encoding="UTF-8" standalone="no"?>
<!DOCTYPE svg PUBLIC "-//W3C//DTD SVG 1.1//EN"
 "http://www.w3.org/Graphics/SVG/1.1/DTD/svg11.dtd">
<!-- Generated by graphviz version 2.43.0 (0)
 -->
<!-- Title: Pipeline Pages: 1 -->
<svg width="379pt" height="44pt"
 viewBox="0.00 0.00 379.00 44.00" xmlns="http://www.w3.org/2000/svg" xmlns:xlink="http://www.w3.org/1999/xlink">
<g id="graph0" class="graph" transform="scale(1 1) rotate(0) translate(4 40)">
<title>Pipeline</title>
<polygon fill="white" stroke="transparent" points="-4,4 -4,-40 375,-40 375,4 -4,4"/>
<!-- img -->
<g id="node1" class="node">
<title>img</title>
<text text-anchor="middle" x="27" y="-14.3" font-family="Times,serif" font-size="14.00">img</text>
</g>
<!-- Batch(batch_size=10) -->
<g id="node2" class="node">
<title>Batch(batch_size=10)</title>
<polygon fill="lightgrey" stroke="lightgrey" points="263,-36 90,-36 90,0 263,0 263,-36"/>
<text text-anchor="middle" x="176.5" y="-14.3" font-family="Times,serif" font-size="14.00">Batch(batch_size=10)</text>
</g>
<!-- img&#45;&gt;Batch(batch_size=10) -->
<g id="edge1" class="edge">
<title>img&#45;&gt;Batch(batch_size=10)</title>
<path fill="none" stroke="black" d="M54.03,-18C61.62,-18 70.4,-18 79.69,-18"/>
<polygon fill="black" stroke="black" points="79.93,-21.5 89.93,-18 79.93,-14.5 79.93,-21.5"/>
</g>
<!-- [img,...] -->
<g id="node3" class="node">
<title>[img,...]</title>
<text text-anchor="middle" x="335" y="-14.3" font-family="Times,serif" font-size="14.00">[img,...]</text>
</g>
<!-- Batch(batch_size=10)&#45;&gt;[img,...] -->
<g id="edge2" class="edge">
<title>Batch(batch_size=10)&#45;&gt;[img,...]</title>
<path fill="none" stroke="black" d="M263.08,-18C271.81,-18 280.42,-18 288.47,-18"/>
<polygon fill="black" stroke="black" points="288.68,-21.5 298.68,-18 288.68,-14.5 288.68,-21.5"/>
</g>
</g>
</svg>
