<?xml version="1.0" encoding="UTF-8" standalone="no"?>
<!DOCTYPE svg PUBLIC "-//W3C//DTD SVG 1.1//EN"
 "http://www.w3.org/Graphics/SVG/1.1/DTD/svg11.dtd">
<!-- Generated by graphviz version 2.43.0 (0)
 -->
<!-- Title: Pipeline Pages: 1 -->
<svg width="1338pt" height="98pt"
 viewBox="0.00 0.00 1338.00 98.00" xmlns="http://www.w3.org/2000/svg" xmlns:xlink="http://www.w3.org/1999/xlink">
<g id="graph0" class="graph" transform="scale(1 1) rotate(0) translate(4 94)">
<title>Pipeline</title>
<polygon fill="white" stroke="transparent" points="-4,4 -4,-94 1334,-94 1334,4 -4,4"/>
<!-- inputs -->
<g id="node1" class="node">
<title>inputs</title>
<text text-anchor="middle" x="31" y="-41.3" font-family="Times,serif" font-size="14.00">inputs</text>
</g>
<!-- download_file -->
<g id="node2" class="node">
<title>download_file</title>
<polygon fill="none" stroke="black" points="212,-63 99,-63 99,-27 212,-27 212,-63"/>
<text text-anchor="middle" x="155.5" y="-41.3" font-family="Times,serif" font-size="14.00">download_file</text>
</g>
<!-- inputs&#45;&gt;download_file -->
<g id="edge1" class="edge">
<title>inputs&#45;&gt;download_file</title>
<path fill="none" stroke="black" d="M62.28,-45C70.4,-45 79.5,-45 88.74,-45"/>
<polygon fill="black" stroke="black" points="88.78,-48.5 98.78,-45 88.78,-41.5 88.78,-48.5"/>
</g>
<!-- unzip_file -->
<g id="node3" class="node">
<title>unzip_file</title>
<polygon fill="none" stroke="black" points="333,-63 249,-63 249,-27 333,-27 333,-63"/>
<text text-anchor="middle" x="291" y="-41.3" font-family="Times,serif" font-size="14.00">unzip_file</text>
</g>
<!-- download_file&#45;&gt;unzip_file -->
<g id="edge2" class="edge">
<title>download_file&#45;&gt;unzip_file</title>
<path fill="none" stroke="black" d="M212.34,-45C220.98,-45 229.86,-45 238.4,-45"/>
<polygon fill="black" stroke="black" points="238.6,-48.5 248.6,-45 238.6,-41.5 238.6,-48.5"/>
</g>
<!-- Split(is_image) -->
<g id="node4" class="node">
<title>Split(is_image)</title>
<polygon fill="lightgrey" stroke="lightgrey" points="493,-63 370,-63 370,-27 493,-27 493,-63"/>
<text text-anchor="middle" x="431.5" y="-41.3" font-family="Times,serif" font-size="14.00">Split(is_image)</text>
</g>
<!-- unzip_file&#45;&gt;Split(is_image) -->
<g id="edge3" class="edge">
<title>unzip_file&#45;&gt;Split(is_image)</title>
<path fill="none" stroke="black" d="M333.18,-45C341.58,-45 350.64,-45 359.74,-45"/>
<polygon fill="black" stroke="black" points="360,-48.5 370,-45 360,-41.5 360,-48.5"/>
</g>
<!-- Filter(filter_fn) -->
<g id="node5" class="node">
<title>Filter(filter_fn)</title>
<polygon fill="lightgrey" stroke="lightgrey" points="714.5,-90 592.5,-90 592.5,-54 714.5,-54 714.5,-90"/>
<text text-anchor="middle" x="653.5" y="-68.3" font-family="Times,serif" font-size="14.00">Filter(filter_fn)</text>
</g>
<!-- Split(is_image)&#45;&gt;Filter(filter_fn) -->
<g id="edge4" class="edge">
<title>Split(is_image)&#45;&gt;Filter(filter_fn)</title>
<path fill="none" stroke="black" d="M493.2,-52.45C520.84,-55.84 553.73,-59.88 582.42,-63.4"/>
<polygon fill="black" stroke="black" points="582.03,-66.88 592.38,-64.62 582.88,-59.93 582.03,-66.88"/>
<text text-anchor="middle" x="530" y="-61.8" font-family="Times,serif" font-size="14.00">False</text>
</g>
<!-- Batch(batch_size=10) -->
<g id="node6" class="node">
<title>Batch(batch_size=10)</title>
<polygon fill="lightgrey" stroke="lightgrey" points="740,-36 567,-36 567,0 740,0 740,-36"/>
<text text-anchor="middle" x="653.5" y="-14.3" font-family="Times,serif" font-size="14.00">Batch(batch_size=10)</text>
</g>
<!-- Split(is_image)&#45;&gt;Batch(batch_size=10) -->
<g id="edge5" class="edge">
<title>Split(is_image)&#45;&gt;Batch(batch_size=10)</title>
<path fill="none" stroke="black" d="M493.2,-37.55C512.85,-35.14 535.15,-32.4 556.71,-29.76"/>
<polygon fill="black" stroke="black" points="557.39,-33.2 566.89,-28.51 556.54,-26.25 557.39,-33.2"/>
<text text-anchor="middle" x="530" y="-37.8" font-family="Times,serif" font-size="14.00">True</text>
</g>
<!-- process_doc -->
<g id="node7" class="node">
<title>process_doc</title>
<polygon fill="none" stroke="black" points="1027,-89 924,-89 924,-53 1027,-53 1027,-89"/>
<text text-anchor="middle" x="975.5" y="-67.3" font-family="Times,serif" font-size="14.00">process_doc</text>
</g>
<!-- Filter(filter_fn)&#45;&gt;process_doc -->
<g id="edge6" class="edge">
<title>Filter(filter_fn)&#45;&gt;process_doc</title>
<path fill="none" stroke="black" d="M714.69,-71.81C771.53,-71.63 856.35,-71.37 913.47,-71.19"/>
<polygon fill="black" stroke="black" points="913.81,-74.69 923.8,-71.16 913.79,-67.69 913.81,-74.69"/>
</g>
<!-- process_images -->
<g id="node8" class="node">
<title>process_images</title>
<polygon fill="none" stroke="black" points="906,-42 777,-42 777,-6 906,-6 906,-42"/>
<text text-anchor="middle" x="841.5" y="-20.3" font-family="Times,serif" font-size="14.00">process_images</text>
</g>
<!-- Batch(batch_size=10)&#45;&gt;process_images -->
<g id="edge7" class="edge">
<title>Batch(batch_size=10)&#45;&gt;process_images</title>
<path fill="none" stroke="black" d="M740.15,-20.76C749.06,-21.05 758.06,-21.34 766.82,-21.62"/>
<polygon fill="black" stroke="black" points="766.86,-25.13 776.97,-21.95 767.09,-18.13 766.86,-25.13"/>
</g>
<!-- Merge -->
<g id="node9" class="node">
<title>Merge</title>
<polygon fill="lightgrey" stroke="lightgrey" points="1222,-66 1159,-66 1159,-30 1222,-30 1222,-66"/>
<text text-anchor="middle" x="1190.5" y="-44.3" font-family="Times,serif" font-size="14.00">Merge</text>
</g>
<!-- process_doc&#45;&gt;Merge -->
<g id="edge8" class="edge">
<title>process_doc&#45;&gt;Merge</title>
<path fill="none" stroke="black" d="M1027.25,-65.52C1064.38,-61.51 1114.11,-56.14 1148.68,-52.41"/>
<polygon fill="black" stroke="black" points="1149.33,-55.86 1158.9,-51.3 1148.58,-48.9 1149.33,-55.86"/>
</g>
<!-- Unbatch -->
<g id="node10" class="node">
<title>Unbatch</title>
<polygon fill="lightgrey" stroke="lightgrey" points="1122,-43 1045,-43 1045,-7 1122,-7 1122,-43"/>
<text text-anchor="middle" x="1083.5" y="-21.3" font-family="Times,serif" font-size="14.00">Unbatch</text>
</g>
<!-- process_images&#45;&gt;Unbatch -->
<g id="edge9" class="edge">
<title>process_images&#45;&gt;Unbatch</title>
<path fill="none" stroke="black" d="M906.19,-24.27C946.38,-24.43 997.47,-24.65 1034.3,-24.8"/>
<polygon fill="black" stroke="black" points="1034.75,-28.3 1044.76,-24.84 1034.78,-21.3 1034.75,-28.3"/>
</g>
<!-- outputs -->
<g id="node11" class="node">
<title>outputs</title>
<text text-anchor="middle" x="1294.5" y="-44.3" font-family="Times,serif" font-size="14.00">outputs</text>
</g>
<!-- Merge&#45;&gt;outputs -->
<g id="edge10" class="edge">
<title>Merge&#45;&gt;outputs</title>
<path fill="none" stroke="black" d="M1222.1,-48C1230.55,-48 1239.88,-48 1248.94,-48"/>
<polygon fill="black" stroke="black" points="1248.99,-51.5 1258.99,-48 1248.99,-44.5 1248.99,-51.5"/>
</g>
<!-- Unbatch&#45;&gt;Merge -->
<g id="edge11" class="edge">
<title>Unbatch&#45;&gt;Merge</title>
<path fill="none" stroke="black" d="M1122.11,-33.24C1130.74,-35.13 1139.95,-37.15 1148.71,-39.06"/>
<polygon fill="black" stroke="black" points="1148.2,-42.54 1158.71,-41.26 1149.69,-35.7 1148.2,-42.54"/>
</g>
</g>
</svg>
