<?xml version="1.0" encoding="UTF-8" standalone="no"?>
<!DOCTYPE svg PUBLIC "-//W3C//DTD SVG 1.1//EN"
 "http://www.w3.org/Graphics/SVG/1.1/DTD/svg11.dtd">
<!-- Generated by graphviz version 9.0.0 (20230911.1827)
 -->
<!-- Title: Pipeline Pages: 1 -->
<svg width="720pt" height="60pt"
 viewBox="0.00 0.00 720.00 60.09" xmlns="http://www.w3.org/2000/svg" xmlns:xlink="http://www.w3.org/1999/xlink">
<g id="graph0" class="graph" transform="scale(0.613176 0.613176) rotate(0) translate(4 94)">
<title>Pipeline</title>
<polygon fill="white" stroke="none" points="-4,4 -4,-94 1170.22,-94 1170.22,4 -4,4"/>
<!-- inputs -->
<g id="node1" class="node">
<title>inputs</title>
<ellipse fill="none" stroke="black" cx="33.44" cy="-45" rx="33.44" ry="18"/>
<text text-anchor="middle" x="33.44" y="-39.95" font-family="Times,serif" font-size="14.00">inputs</text>
</g>
<!-- download_file -->
<g id="node2" class="node">
<title>download_file</title>
<polygon fill="none" stroke="black" points="197.88,-63 103.88,-63 103.88,-27 197.88,-27 197.88,-63"/>
<text text-anchor="middle" x="150.88" y="-39.95" font-family="Times,serif" font-size="14.00">download_file</text>
</g>
<!-- inputs&#45;&gt;download_file -->
<g id="edge1" class="edge">
<title>inputs&#45;&gt;download_file</title>
<path fill="none" stroke="black" d="M67.21,-45C75.09,-45 83.74,-45 92.38,-45"/>
<polygon fill="black" stroke="black" points="92.15,-48.5 102.15,-45 92.15,-41.5 92.15,-48.5"/>
</g>
<!-- unzip_file -->
<g id="node3" class="node">
<title>unzip_file</title>
<polygon fill="none" stroke="black" points="305.63,-63 234.88,-63 234.88,-27 305.63,-27 305.63,-63"/>
<text text-anchor="middle" x="270.25" y="-39.95" font-family="Times,serif" font-size="14.00">unzip_file</text>
</g>
<!-- download_file&#45;&gt;unzip_file -->
<g id="edge2" class="edge">
<title>download_file&#45;&gt;unzip_file</title>
<path fill="none" stroke="black" d="M198.27,-45C206.45,-45 214.98,-45 223.16,-45"/>
<polygon fill="black" stroke="black" points="222.91,-48.5 232.91,-45 222.91,-41.5 222.91,-48.5"/>
</g>
<!-- Split(is_image) -->
<g id="node4" class="node">
<title>Split(is_image)</title>
<polygon fill="lightgrey" stroke="lightgrey" points="442.63,-63 342.63,-63 342.63,-27 442.63,-27 442.63,-63"/>
<text text-anchor="middle" x="392.63" y="-39.95" font-family="Times,serif" font-size="14.00">Split(is_image)</text>
</g>
<!-- unzip_file&#45;&gt;Split(is_image) -->
<g id="edge3" class="edge">
<title>unzip_file&#45;&gt;Split(is_image)</title>
<path fill="none" stroke="black" d="M306.07,-45C313.99,-45 322.62,-45 331.26,-45"/>
<polygon fill="black" stroke="black" points="331.05,-48.5 341.05,-45 331.05,-41.5 331.05,-48.5"/>
</g>
<!-- Batch(batch_size=10) -->
<g id="node5" class="node">
<title>Batch(batch_size=10)</title>
<polygon fill="lightgrey" stroke="lightgrey" points="642.38,-90 507.13,-90 507.13,-54 642.38,-54 642.38,-90"/>
<text text-anchor="middle" x="574.75" y="-66.95" font-family="Times,serif" font-size="14.00">Batch(batch_size=10)</text>
</g>
<!-- Split(is_image)&#45;&gt;Batch(batch_size=10) -->
<g id="edge4" class="edge">
<title>Split(is_image)&#45;&gt;Batch(batch_size=10)</title>
<path fill="none" stroke="black" d="M442.85,-52.38C459.07,-54.81 477.54,-57.58 495.39,-60.25"/>
<polygon fill="black" stroke="black" points="494.79,-63.7 505.2,-61.72 495.83,-56.78 494.79,-63.7"/>
<text text-anchor="middle" x="474.88" y="-62.2" font-family="Times,serif" font-size="14.00">True</text>
</g>
<!-- Filter(filter_fn) -->
<g id="node6" class="node">
<title>Filter(filter_fn)</title>
<polygon fill="lightgrey" stroke="lightgrey" points="624,-36 525.5,-36 525.5,0 624,0 624,-36"/>
<text text-anchor="middle" x="574.75" y="-12.95" font-family="Times,serif" font-size="14.00">Filter(filter_fn)</text>
</g>
<!-- Split(is_image)&#45;&gt;Filter(filter_fn) -->
<g id="edge5" class="edge">
<title>Split(is_image)&#45;&gt;Filter(filter_fn)</title>
<path fill="none" stroke="black" d="M443.01,-37.2C448.95,-36.28 454.92,-35.36 460.63,-34.5 477.93,-31.88 496.74,-29.11 513.96,-26.6"/>
<polygon fill="black" stroke="black" points="514.12,-30.11 523.51,-25.21 513.12,-23.19 514.12,-30.11"/>
<text text-anchor="middle" x="474.88" y="-38.2" font-family="Times,serif" font-size="14.00">False</text>
</g>
<!-- process_images -->
<g id="node7" class="node">
<title>process_images</title>
<polygon fill="none" stroke="black" points="781.63,-89 679.38,-89 679.38,-53 781.63,-53 781.63,-89"/>
<text text-anchor="middle" x="730.5" y="-65.95" font-family="Times,serif" font-size="14.00">process_images</text>
</g>
<!-- Batch(batch_size=10)&#45;&gt;process_images -->
<g id="edge6" class="edge">
<title>Batch(batch_size=10)&#45;&gt;process_images</title>
<path fill="none" stroke="black" d="M642.74,-71.56C650.99,-71.51 659.4,-71.46 667.57,-71.4"/>
<polygon fill="black" stroke="black" points="667.43,-74.9 677.41,-71.34 667.39,-67.9 667.43,-74.9"/>
</g>
<!-- process_doc -->
<g id="node8" class="node">
<title>process_doc</title>
<polygon fill="none" stroke="black" points="882.38,-42 799.63,-42 799.63,-6 882.38,-6 882.38,-42"/>
<text text-anchor="middle" x="841" y="-18.95" font-family="Times,serif" font-size="14.00">process_doc</text>
</g>
<!-- Filter(filter_fn)&#45;&gt;process_doc -->
<g id="edge7" class="edge">
<title>Filter(filter_fn)&#45;&gt;process_doc</title>
<path fill="none" stroke="black" d="M624.22,-19.1C670.61,-20.15 740.36,-21.74 787.92,-22.82"/>
<polygon fill="black" stroke="black" points="787.62,-26.31 797.69,-23.04 787.77,-19.31 787.62,-26.31"/>
</g>
<!-- Unbatch -->
<g id="node9" class="node">
<title>Unbatch</title>
<polygon fill="lightgrey" stroke="lightgrey" points="962.13,-89 900.38,-89 900.38,-53 962.13,-53 962.13,-89"/>
<text text-anchor="middle" x="931.25" y="-65.95" font-family="Times,serif" font-size="14.00">Unbatch</text>
</g>
<!-- process_images&#45;&gt;Unbatch -->
<g id="edge8" class="edge">
<title>process_images&#45;&gt;Unbatch</title>
<path fill="none" stroke="black" d="M781.91,-71C814.95,-71 857.62,-71 888.71,-71"/>
<polygon fill="black" stroke="black" points="888.5,-74.5 898.5,-71 888.5,-67.5 888.5,-74.5"/>
</g>
<!-- Merge -->
<g id="node10" class="node">
<title>Merge</title>
<polygon fill="lightgrey" stroke="lightgrey" points="1053.13,-55 999.13,-55 999.13,-19 1053.13,-19 1053.13,-55"/>
<text text-anchor="middle" x="1026.13" y="-31.95" font-family="Times,serif" font-size="14.00">Merge</text>
</g>
<!-- process_doc&#45;&gt;Merge -->
<g id="edge9" class="edge">
<title>process_doc&#45;&gt;Merge</title>
<path fill="none" stroke="black" d="M882.64,-26.89C913.9,-29.1 956.76,-32.15 987.29,-34.31"/>
<polygon fill="black" stroke="black" points="987.01,-37.8 997.23,-35.02 987.51,-30.82 987.01,-37.8"/>
</g>
<!-- Unbatch&#45;&gt;Merge -->
<g id="edge10" class="edge">
<title>Unbatch&#45;&gt;Merge</title>
<path fill="none" stroke="black" d="M962.41,-59.96C970.67,-56.93 979.73,-53.62 988.32,-50.47"/>
<polygon fill="black" stroke="black" points="989.26,-53.86 997.45,-47.13 986.86,-47.28 989.26,-53.86"/>
</g>
<!-- outputs -->
<g id="node11" class="node">
<title>outputs</title>
<ellipse fill="none" stroke="black" cx="1128.17" cy="-37" rx="38.04" ry="18"/>
<text text-anchor="middle" x="1128.17" y="-31.95" font-family="Times,serif" font-size="14.00">outputs</text>
</g>
<!-- Merge&#45;&gt;outputs -->
<g id="edge11" class="edge">
<title>Merge&#45;&gt;outputs</title>
<path fill="none" stroke="black" d="M1053.41,-37C1061.14,-37 1069.85,-37 1078.51,-37"/>
<polygon fill="black" stroke="black" points="1078.26,-40.5 1088.26,-37 1078.26,-33.5 1078.26,-40.5"/>
</g>
</g>
</svg>
