<?xml version="1.0" encoding="UTF-8" standalone="no"?>
<!DOCTYPE svg PUBLIC "-//W3C//DTD SVG 1.1//EN"
 "http://www.w3.org/Graphics/SVG/1.1/DTD/svg11.dtd">
<!-- Generated by graphviz version 2.43.0 (0)
 -->
<!-- Title: Pipeline Pages: 1 -->
<svg width="1338pt" height="98pt"
 viewBox="0.00 0.00 1338.00 98.00" xmlns="http://www.w3.org/2000/svg" xmlns:xlink="http://www.w3.org/1999/xlink">
<g id="graph0" class="graph" transform="scale(1 1) rotate(0) translate(4 94)">
<title>Pipeline</title>
<polygon fill="white" stroke="transparent" points="-4,4 -4,-94 1334,-94 1334,4 -4,4"/>
<!-- inputs -->
<g id="node1" class="node">
<title>inputs</title>
<text text-anchor="middle" x="31" y="-41.3" font-family="Times,serif" font-size="14.00">inputs</text>
</g>
<!-- download_file -->
<g id="node2" class="node">
<title>download_file</title>
<polygon fill="none" stroke="black" points="212,-63 99,-63 99,-27 212,-27 212,-63"/>
<text text-anchor="middle" x="155.5" y="-41.3" font-family="Times,serif" font-size="14.00">download_file</text>
</g>
<!-- inputs&#45;&gt;download_file -->
<g id="edge1" class="edge">
<title>inputs&#45;&gt;download_file</title>
<path fill="none" stroke="black" d="M62.28,-45C70.4,-45 79.5,-45 88.74,-45"/>
<polygon fill="black" stroke="black" points="88.78,-48.5 98.78,-45 88.78,-41.5 88.78,-48.5"/>
</g>
<!-- unzip_file -->
<g id="node3" class="node">
<title>unzip_file</title>
<polygon fill="none" stroke="black" points="333,-63 249,-63 249,-27 333,-27 333,-63"/>
<text text-anchor="middle" x="291" y="-41.3" font-family="Times,serif" font-size="14.00">unzip_file</text>
</g>
<!-- download_file&#45;&gt;unzip_file -->
<g id="edge2" class="edge">
<title>download_file&#45;&gt;unzip_file</title>
<path fill="none" stroke="black" d="M212.34,-45C220.98,-45 229.86,-45 238.4,-45"/>
<polygon fill="black" stroke="black" points="238.6,-48.5 248.6,-45 238.6,-41.5 238.6,-48.5"/>
</g>
<!-- Split(is_image) -->
<g id="node4" class="node">
<title>Split(is_image)</title>
<polygon fill="lightgrey" stroke="lightgrey" points="493,-63 370,-63 370,-27 493,-27 493,-63"/>
<text text-anchor="middle" x="431.5" y="-41.3" font-family="Times,serif" font-size="14.00">Split(is_image)</text>
</g>
<!-- unzip_file&#45;&gt;Split(is_image) -->
<g id="edge3" class="edge">
<title>unzip_file&#45;&gt;Split(is_image)</title>
<path fill="none" stroke="black" d="M333.18,-45C341.58,-45 350.64,-45 359.74,-45"/>
<polygon fill="black" stroke="black" points="360,-48.5 370,-45 360,-41.5 360,-48.5"/>
</g>
<!-- Batch(batch_size=10) -->
<g id="node5" class="node">
<title>Batch(batch_size=10)</title>
<polygon fill="lightgrey" stroke="lightgrey" points="740,-90 567,-90 567,-54 740,-54 740,-90"/>
<text text-anchor="middle" x="653.5" y="-68.3" font-family="Times,serif" font-size="14.00">Batch(batch_size=10)</text>
</g>
<!-- Split(is_image)&#45;&gt;Batch(batch_size=10) -->
<g id="edge4" class="edge">
<title>Split(is_image)&#45;&gt;Batch(batch_size=10)</title>
<path fill="none" stroke="black" d="M493.2,-52.45C512.85,-54.86 535.15,-57.6 556.71,-60.24"/>
<polygon fill="black" stroke="black" points="556.54,-63.75 566.89,-61.49 557.39,-56.8 556.54,-63.75"/>
<text text-anchor="middle" x="530" y="-61.8" font-family="Times,serif" font-size="14.00">True</text>
</g>
<!-- Filter(filter_fn) -->
<g id="node6" class="node">
<title>Filter(filter_fn)</title>
<polygon fill="lightgrey" stroke="lightgrey" points="714.5,-36 592.5,-36 592.5,0 714.5,0 714.5,-36"/>
<text text-anchor="middle" x="653.5" y="-14.3" font-family="Times,serif" font-size="14.00">Filter(filter_fn)</text>
</g>
<!-- Split(is_image)&#45;&gt;Filter(filter_fn) -->
<g id="edge5" class="edge">
<title>Split(is_image)&#45;&gt;Filter(filter_fn)</title>
<path fill="none" stroke="black" d="M493.2,-37.55C520.84,-34.16 553.73,-30.12 582.42,-26.6"/>
<polygon fill="black" stroke="black" points="582.88,-30.07 592.38,-25.38 582.03,-23.12 582.88,-30.07"/>
<text text-anchor="middle" x="530" y="-37.8" font-family="Times,serif" font-size="14.00">False</text>
</g>
<!-- process_images -->
<g id="node7" class="node">
<title>process_images</title>
<polygon fill="none" stroke="black" points="906,-89 777,-89 777,-53 906,-53 906,-89"/>
<text text-anchor="middle" x="841.5" y="-67.3" font-family="Times,serif" font-size="14.00">process_images</text>
</g>
<!-- Batch(batch_size=10)&#45;&gt;process_images -->
<g id="edge6" class="edge">
<title>Batch(batch_size=10)&#45;&gt;process_images</title>
<path fill="none" stroke="black" d="M740.15,-71.54C749.06,-71.49 758.06,-71.44 766.82,-71.4"/>
<polygon fill="black" stroke="black" points="766.99,-74.9 776.97,-71.34 766.95,-67.9 766.99,-74.9"/>
</g>
<!-- process_doc -->
<g id="node8" class="node">
<title>process_doc</title>
<polygon fill="none" stroke="black" points="1027,-42 924,-42 924,-6 1027,-6 1027,-42"/>
<text text-anchor="middle" x="975.5" y="-20.3" font-family="Times,serif" font-size="14.00">process_doc</text>
</g>
<!-- Filter(filter_fn)&#45;&gt;process_doc -->
<g id="edge7" class="edge">
<title>Filter(filter_fn)&#45;&gt;process_doc</title>
<path fill="none" stroke="black" d="M714.69,-19.13C771.53,-20.19 856.35,-21.78 913.47,-22.86"/>
<polygon fill="black" stroke="black" points="913.74,-26.36 923.8,-23.05 913.87,-19.36 913.74,-26.36"/>
</g>
<!-- Unbatch -->
<g id="node9" class="node">
<title>Unbatch</title>
<polygon fill="lightgrey" stroke="lightgrey" points="1122,-89 1045,-89 1045,-53 1122,-53 1122,-89"/>
<text text-anchor="middle" x="1083.5" y="-67.3" font-family="Times,serif" font-size="14.00">Unbatch</text>
</g>
<!-- process_images&#45;&gt;Unbatch -->
<g id="edge8" class="edge">
<title>process_images&#45;&gt;Unbatch</title>
<path fill="none" stroke="black" d="M906.19,-71C946.38,-71 997.47,-71 1034.3,-71"/>
<polygon fill="black" stroke="black" points="1034.76,-74.5 1044.76,-71 1034.76,-67.5 1034.76,-74.5"/>
</g>
<!-- Merge -->
<g id="node10" class="node">
<title>Merge</title>
<polygon fill="lightgrey" stroke="lightgrey" points="1222,-55 1159,-55 1159,-19 1222,-19 1222,-55"/>
<text text-anchor="middle" x="1190.5" y="-33.3" font-family="Times,serif" font-size="14.00">Merge</text>
</g>
<!-- process_doc&#45;&gt;Merge -->
<g id="edge9" class="edge">
<title>process_doc&#45;&gt;Merge</title>
<path fill="none" stroke="black" d="M1027.25,-27.1C1064.38,-29.36 1114.11,-32.4 1148.68,-34.51"/>
<polygon fill="black" stroke="black" points="1148.7,-38.02 1158.9,-35.13 1149.13,-31.03 1148.7,-38.02"/>
</g>
<!-- Unbatch&#45;&gt;Merge -->
<g id="edge10" class="edge">
<title>Unbatch&#45;&gt;Merge</title>
<path fill="none" stroke="black" d="M1122.11,-58.82C1130.83,-56 1140.15,-52.98 1148.99,-50.12"/>
<polygon fill="black" stroke="black" points="1150.28,-53.38 1158.71,-46.97 1148.12,-46.72 1150.28,-53.38"/>
</g>
<!-- outputs -->
<g id="node11" class="node">
<title>outputs</title>
<text text-anchor="middle" x="1294.5" y="-33.3" font-family="Times,serif" font-size="14.00">outputs</text>
</g>
<!-- Merge&#45;&gt;outputs -->
<g id="edge11" class="edge">
<title>Merge&#45;&gt;outputs</title>
<path fill="none" stroke="black" d="M1222.1,-37C1230.55,-37 1239.88,-37 1248.94,-37"/>
<polygon fill="black" stroke="black" points="1248.99,-40.5 1258.99,-37 1248.99,-33.5 1248.99,-40.5"/>
</g>
</g>
</svg>
