<?xml version="1.0" encoding="UTF-8" standalone="no"?>
<!DOCTYPE svg PUBLIC "-//W3C//DTD SVG 1.1//EN"
 "http://www.w3.org/Graphics/SVG/1.1/DTD/svg11.dtd">
<!-- Generated by graphviz version 2.43.0 (0)
 -->
<!-- Title: Pipeline Pages: 1 -->
<svg width="1378pt" height="98pt"
 viewBox="0.00 0.00 1377.88 98.00" xmlns="http://www.w3.org/2000/svg" xmlns:xlink="http://www.w3.org/1999/xlink">
<g id="graph0" class="graph" transform="scale(1 1) rotate(0) translate(4 94)">
<title>Pipeline</title>
<polygon fill="white" stroke="transparent" points="-4,4 -4,-94 1373.88,-94 1373.88,4 -4,4"/>
<!-- inputs -->
<g id="node1" class="node">
<title>inputs</title>
<ellipse fill="none" stroke="black" cx="40.3" cy="-45" rx="40.09" ry="18"/>
<text text-anchor="middle" x="40.3" y="-41.3" font-family="Times,serif" font-size="14.00">inputs</text>
</g>
<!-- download_file -->
<g id="node2" class="node">
<title>download_file</title>
<polygon fill="none" stroke="black" points="230.59,-63 117.59,-63 117.59,-27 230.59,-27 230.59,-63"/>
<text text-anchor="middle" x="174.09" y="-41.3" font-family="Times,serif" font-size="14.00">download_file</text>
</g>
<!-- inputs&#45;&gt;download_file -->
<g id="edge1" class="edge">
<title>inputs&#45;&gt;download_file</title>
<path fill="none" stroke="black" d="M80.84,-45C89.21,-45 98.27,-45 107.32,-45"/>
<polygon fill="black" stroke="black" points="107.5,-48.5 117.5,-45 107.5,-41.5 107.5,-48.5"/>
</g>
<!-- unzip_file -->
<g id="node3" class="node">
<title>unzip_file</title>
<polygon fill="none" stroke="black" points="351.59,-63 267.59,-63 267.59,-27 351.59,-27 351.59,-63"/>
<text text-anchor="middle" x="309.59" y="-41.3" font-family="Times,serif" font-size="14.00">unzip_file</text>
</g>
<!-- download_file&#45;&gt;unzip_file -->
<g id="edge2" class="edge">
<title>download_file&#45;&gt;unzip_file</title>
<path fill="none" stroke="black" d="M230.94,-45C239.57,-45 248.46,-45 256.99,-45"/>
<polygon fill="black" stroke="black" points="257.19,-48.5 267.19,-45 257.19,-41.5 257.19,-48.5"/>
</g>
<!-- Split(is_image) -->
<g id="node4" class="node">
<title>Split(is_image)</title>
<polygon fill="lightgrey" stroke="lightgrey" points="511.59,-63 388.59,-63 388.59,-27 511.59,-27 511.59,-63"/>
<text text-anchor="middle" x="450.09" y="-41.3" font-family="Times,serif" font-size="14.00">Split(is_image)</text>
</g>
<!-- unzip_file&#45;&gt;Split(is_image) -->
<g id="edge3" class="edge">
<title>unzip_file&#45;&gt;Split(is_image)</title>
<path fill="none" stroke="black" d="M351.77,-45C360.17,-45 369.24,-45 378.34,-45"/>
<polygon fill="black" stroke="black" points="378.59,-48.5 388.59,-45 378.59,-41.5 378.59,-48.5"/>
</g>
<!-- Filter(filter_fn) -->
<g id="node5" class="node">
<title>Filter(filter_fn)</title>
<polygon fill="lightgrey" stroke="lightgrey" points="733.09,-90 611.09,-90 611.09,-54 733.09,-54 733.09,-90"/>
<text text-anchor="middle" x="672.09" y="-68.3" font-family="Times,serif" font-size="14.00">Filter(filter_fn)</text>
</g>
<!-- Split(is_image)&#45;&gt;Filter(filter_fn) -->
<g id="edge4" class="edge">
<title>Split(is_image)&#45;&gt;Filter(filter_fn)</title>
<path fill="none" stroke="black" d="M511.79,-52.45C539.44,-55.84 572.32,-59.88 601.01,-63.4"/>
<polygon fill="black" stroke="black" points="600.62,-66.88 610.97,-64.62 601.47,-59.93 600.62,-66.88"/>
<text text-anchor="middle" x="548.59" y="-61.8" font-family="Times,serif" font-size="14.00">False</text>
</g>
<!-- Batch(batch_size=10) -->
<g id="node6" class="node">
<title>Batch(batch_size=10)</title>
<polygon fill="lightgrey" stroke="lightgrey" points="758.59,-36 585.59,-36 585.59,0 758.59,0 758.59,-36"/>
<text text-anchor="middle" x="672.09" y="-14.3" font-family="Times,serif" font-size="14.00">Batch(batch_size=10)</text>
</g>
<!-- Split(is_image)&#45;&gt;Batch(batch_size=10) -->
<g id="edge5" class="edge">
<title>Split(is_image)&#45;&gt;Batch(batch_size=10)</title>
<path fill="none" stroke="black" d="M511.79,-37.55C531.44,-35.14 553.75,-32.4 575.31,-29.76"/>
<polygon fill="black" stroke="black" points="575.98,-33.2 585.48,-28.51 575.13,-26.25 575.98,-33.2"/>
<text text-anchor="middle" x="548.59" y="-37.8" font-family="Times,serif" font-size="14.00">True</text>
</g>
<!-- process_doc -->
<g id="node7" class="node">
<title>process_doc</title>
<polygon fill="none" stroke="black" points="1045.59,-89 942.59,-89 942.59,-53 1045.59,-53 1045.59,-89"/>
<text text-anchor="middle" x="994.09" y="-67.3" font-family="Times,serif" font-size="14.00">process_doc</text>
</g>
<!-- Filter(filter_fn)&#45;&gt;process_doc -->
<g id="edge6" class="edge">
<title>Filter(filter_fn)&#45;&gt;process_doc</title>
<path fill="none" stroke="black" d="M733.28,-71.81C790.12,-71.63 874.95,-71.37 932.06,-71.19"/>
<polygon fill="black" stroke="black" points="932.4,-74.69 942.39,-71.16 932.38,-67.69 932.4,-74.69"/>
</g>
<!-- process_images -->
<g id="node8" class="node">
<title>process_images</title>
<polygon fill="none" stroke="black" points="924.59,-42 795.59,-42 795.59,-6 924.59,-6 924.59,-42"/>
<text text-anchor="middle" x="860.09" y="-20.3" font-family="Times,serif" font-size="14.00">process_images</text>
</g>
<!-- Batch(batch_size=10)&#45;&gt;process_images -->
<g id="edge7" class="edge">
<title>Batch(batch_size=10)&#45;&gt;process_images</title>
<path fill="none" stroke="black" d="M758.74,-20.76C767.65,-21.05 776.65,-21.34 785.41,-21.62"/>
<polygon fill="black" stroke="black" points="785.46,-25.13 795.56,-21.95 785.68,-18.13 785.46,-25.13"/>
</g>
<!-- Merge -->
<g id="node9" class="node">
<title>Merge</title>
<polygon fill="lightgrey" stroke="lightgrey" points="1240.59,-66 1177.59,-66 1177.59,-30 1240.59,-30 1240.59,-66"/>
<text text-anchor="middle" x="1209.09" y="-44.3" font-family="Times,serif" font-size="14.00">Merge</text>
</g>
<!-- process_doc&#45;&gt;Merge -->
<g id="edge8" class="edge">
<title>process_doc&#45;&gt;Merge</title>
<path fill="none" stroke="black" d="M1045.84,-65.52C1082.97,-61.51 1132.7,-56.14 1167.28,-52.41"/>
<polygon fill="black" stroke="black" points="1167.92,-55.86 1177.49,-51.3 1167.17,-48.9 1167.92,-55.86"/>
</g>
<!-- Unbatch -->
<g id="node10" class="node">
<title>Unbatch</title>
<polygon fill="lightgrey" stroke="lightgrey" points="1140.59,-43 1063.59,-43 1063.59,-7 1140.59,-7 1140.59,-43"/>
<text text-anchor="middle" x="1102.09" y="-21.3" font-family="Times,serif" font-size="14.00">Unbatch</text>
</g>
<!-- process_images&#45;&gt;Unbatch -->
<g id="edge9" class="edge">
<title>process_images&#45;&gt;Unbatch</title>
<path fill="none" stroke="black" d="M924.78,-24.27C964.97,-24.43 1016.06,-24.65 1052.89,-24.8"/>
<polygon fill="black" stroke="black" points="1053.34,-28.3 1063.36,-24.84 1053.37,-21.3 1053.34,-28.3"/>
</g>
<!-- outputs -->
<g id="node11" class="node">
<title>outputs</title>
<ellipse fill="none" stroke="black" cx="1323.74" cy="-48" rx="46.29" ry="18"/>
<text text-anchor="middle" x="1323.74" y="-44.3" font-family="Times,serif" font-size="14.00">outputs</text>
</g>
<!-- Merge&#45;&gt;outputs -->
<g id="edge10" class="edge">
<title>Merge&#45;&gt;outputs</title>
<path fill="none" stroke="black" d="M1240.87,-48C1249.01,-48 1258.06,-48 1267.08,-48"/>
<polygon fill="black" stroke="black" points="1267.21,-51.5 1277.21,-48 1267.21,-44.5 1267.21,-51.5"/>
</g>
<!-- Unbatch&#45;&gt;Merge -->
<g id="edge11" class="edge">
<title>Unbatch&#45;&gt;Merge</title>
<path fill="none" stroke="black" d="M1140.7,-33.24C1149.33,-35.13 1158.54,-37.15 1167.3,-39.06"/>
<polygon fill="black" stroke="black" points="1166.79,-42.54 1177.31,-41.26 1168.29,-35.7 1166.79,-42.54"/>
</g>
</g>
</svg>
