<?xml version="1.0" encoding="UTF-8" standalone="no"?>
<!DOCTYPE svg PUBLIC "-//W3C//DTD SVG 1.1//EN"
 "http://www.w3.org/Graphics/SVG/1.1/DTD/svg11.dtd">
<!-- Generated by graphviz version 2.43.0 (0)
 -->
<!-- Title: Pipeline Pages: 1 -->
<svg width="354pt" height="44pt"
 viewBox="0.00 0.00 354.00 44.00" xmlns="http://www.w3.org/2000/svg" xmlns:xlink="http://www.w3.org/1999/xlink">
<g id="graph0" class="graph" transform="scale(1 1) rotate(0) translate(4 40)">
<title>Pipeline</title>
<polygon fill="white" stroke="transparent" points="-4,4 -4,-40 350,-40 350,4 -4,4"/>
<!-- doc -->
<g id="node1" class="node">
<title>doc</title>
<text text-anchor="middle" x="27" y="-14.3" font-family="Times,serif" font-size="14.00">doc</text>
</g>
<!-- Filter(filter_fn) -->
<g id="node2" class="node">
<title>Filter(filter_fn)</title>
<polygon fill="lightgrey" stroke="lightgrey" points="212,-36 90,-36 90,0 212,0 212,-36"/>
<text text-anchor="middle" x="151" y="-14.3" font-family="Times,serif" font-size="14.00">Filter(filter_fn)</text>
</g>
<!-- doc&#45;&gt;Filter(filter_fn) -->
<g id="edge1" class="edge">
<title>doc&#45;&gt;Filter(filter_fn)</title>
<path fill="none" stroke="black" d="M54.17,-18C61.8,-18 70.53,-18 79.53,-18"/>
<polygon fill="black" stroke="black" points="79.78,-21.5 89.78,-18 79.78,-14.5 79.78,-21.5"/>
</g>
<!-- doc filtered -->
<g id="node3" class="node">
<title>doc filtered</title>
<text text-anchor="middle" x="297" y="-14.3" font-family="Times,serif" font-size="14.00">doc filtered</text>
</g>
<!-- Filter(filter_fn)&#45;&gt;doc filtered -->
<g id="edge2" class="edge">
<title>Filter(filter_fn)&#45;&gt;doc filtered</title>
<path fill="none" stroke="black" d="M212.23,-18C220.67,-18 229.33,-18 237.73,-18"/>
<polygon fill="black" stroke="black" points="237.82,-21.5 247.82,-18 237.82,-14.5 237.82,-21.5"/>
</g>
</g>
</svg>
