<?xml version="1.0" encoding="UTF-8" standalone="no"?>
<!DOCTYPE svg PUBLIC "-//W3C//DTD SVG 1.1//EN"
 "http://www.w3.org/Graphics/SVG/1.1/DTD/svg11.dtd">
<!-- Generated by graphviz version 2.43.0 (0)
 -->
<!-- Title: Pipeline Pages: 1 -->
<svg width="326pt" height="44pt"
 viewBox="0.00 0.00 326.00 44.00" xmlns="http://www.w3.org/2000/svg" xmlns:xlink="http://www.w3.org/1999/xlink">
<g id="graph0" class="graph" transform="scale(1 1) rotate(0) translate(4 40)">
<title>Pipeline</title>
<polygon fill="white" stroke="transparent" points="-4,4 -4,-40 322,-40 322,4 -4,4"/>
<!-- inputs -->
<g id="node1" class="node">
<title>inputs</title>
<text text-anchor="middle" x="31" y="-14.3" font-family="Times,serif" font-size="14.00">inputs</text>
</g>
<!-- download_file -->
<g id="node2" class="node">
<title>download_file</title>
<polygon fill="none" stroke="black" points="211,-36 98,-36 98,0 211,0 211,-36"/>
<text text-anchor="middle" x="154.5" y="-14.3" font-family="Times,serif" font-size="14.00">download_file</text>
</g>
<!-- inputs&#45;&gt;download_file -->
<g id="edge1" class="edge">
<title>inputs&#45;&gt;download_file</title>
<path fill="none" stroke="black" d="M62.03,-18C69.9,-18 78.69,-18 87.63,-18"/>
<polygon fill="black" stroke="black" points="87.75,-21.5 97.75,-18 87.75,-14.5 87.75,-21.5"/>
</g>
<!-- outputs -->
<g id="node3" class="node">
<title>outputs</title>
<text text-anchor="middle" x="282.5" y="-14.3" font-family="Times,serif" font-size="14.00">outputs</text>
</g>
<!-- download_file&#45;&gt;outputs -->
<g id="edge2" class="edge">
<title>download_file&#45;&gt;outputs</title>
<path fill="none" stroke="black" d="M211.13,-18C219.66,-18 228.37,-18 236.63,-18"/>
<polygon fill="black" stroke="black" points="236.8,-21.5 246.8,-18 236.8,-14.5 236.8,-21.5"/>
</g>
</g>
</svg>
