<?xml version="1.0" encoding="UTF-8" standalone="no"?>
<!DOCTYPE svg PUBLIC "-//W3C//DTD SVG 1.1//EN"
 "http://www.w3.org/Graphics/SVG/1.1/DTD/svg11.dtd">
<!-- Generated by graphviz version 2.43.0 (0)
 -->
<!-- Title: Pipeline Pages: 1 -->
<svg width="327pt" height="98pt"
 viewBox="0.00 0.00 327.00 98.00" xmlns="http://www.w3.org/2000/svg" xmlns:xlink="http://www.w3.org/1999/xlink">
<g id="graph0" class="graph" transform="scale(1 1) rotate(0) translate(4 94)">
<title>Pipeline</title>
<polygon fill="white" stroke="transparent" points="-4,4 -4,-94 323,-94 323,4 -4,4"/>
<!-- processed img -->
<g id="node1" class="node">
<title>processed img</title>
<text text-anchor="middle" x="60" y="-68.3" font-family="Times,serif" font-size="14.00">processed img</text>
</g>
<!-- Merge -->
<g id="node3" class="node">
<title>Merge</title>
<polygon fill="lightgrey" stroke="lightgrey" points="219,-63 156,-63 156,-27 219,-27 219,-63"/>
<text text-anchor="middle" x="187.5" y="-41.3" font-family="Times,serif" font-size="14.00">Merge</text>
</g>
<!-- processed img&#45;&gt;Merge -->
<g id="edge1" class="edge">
<title>processed img&#45;&gt;Merge</title>
<path fill="none" stroke="black" d="M120.08,-59.29C128.75,-57.42 137.51,-55.54 145.71,-53.78"/>
<polygon fill="black" stroke="black" points="146.69,-57.14 155.73,-51.62 145.22,-50.3 146.69,-57.14"/>
</g>
<!-- processed doc -->
<g id="node2" class="node">
<title>processed doc</title>
<text text-anchor="middle" x="60" y="-14.3" font-family="Times,serif" font-size="14.00">processed doc</text>
</g>
<!-- processed doc&#45;&gt;Merge -->
<g id="edge2" class="edge">
<title>processed doc&#45;&gt;Merge</title>
<path fill="none" stroke="black" d="M119.34,-30.55C128.26,-32.47 137.3,-34.42 145.73,-36.23"/>
<polygon fill="black" stroke="black" points="145.16,-39.69 155.67,-38.37 146.63,-32.84 145.16,-39.69"/>
</g>
<!-- output -->
<g id="node4" class="node">
<title>output</title>
<text text-anchor="middle" x="287" y="-41.3" font-family="Times,serif" font-size="14.00">output</text>
</g>
<!-- Merge&#45;&gt;output -->
<g id="edge3" class="edge">
<title>Merge&#45;&gt;output</title>
<path fill="none" stroke="black" d="M219.08,-45C227.18,-45 236.06,-45 244.63,-45"/>
<polygon fill="black" stroke="black" points="244.86,-48.5 254.86,-45 244.86,-41.5 244.86,-48.5"/>
</g>
</g>
</svg>
