<?xml version="1.0" encoding="UTF-8" standalone="no"?>
<!DOCTYPE svg PUBLIC "-//W3C//DTD SVG 1.1//EN"
 "http://www.w3.org/Graphics/SVG/1.1/DTD/svg11.dtd">
<!-- Generated by graphviz version 2.43.0 (0)
 -->
<!-- Title: Pipeline Pages: 1 -->
<svg width="332pt" height="152pt"
 viewBox="0.00 0.00 332.00 152.00" xmlns="http://www.w3.org/2000/svg" xmlns:xlink="http://www.w3.org/1999/xlink">
<g id="graph0" class="graph" transform="scale(1 1) rotate(0) translate(4 148)">
<title>Pipeline</title>
<polygon fill="white" stroke="transparent" points="-4,4 -4,-148 328,-148 328,4 -4,4"/>
<!-- unzipped -->
<g id="node1" class="node">
<title>unzipped</title>
<text text-anchor="middle" x="41" y="-68.3" font-family="Times,serif" font-size="14.00">unzipped</text>
</g>
<!-- Split(classify) -->
<g id="node2" class="node">
<title>Split(classify)</title>
<polygon fill="lightgrey" stroke="lightgrey" points="232,-90 118,-90 118,-54 232,-54 232,-90"/>
<text text-anchor="middle" x="175" y="-68.3" font-family="Times,serif" font-size="14.00">Split(classify)</text>
</g>
<!-- unzipped&#45;&gt;Split(classify) -->
<g id="edge1" class="edge">
<title>unzipped&#45;&gt;Split(classify)</title>
<path fill="none" stroke="black" d="M82.32,-72C90.39,-72 99.06,-72 107.74,-72"/>
<polygon fill="black" stroke="black" points="107.89,-75.5 117.89,-72 107.89,-68.5 107.89,-75.5"/>
</g>
<!-- img -->
<g id="node3" class="node">
<title>img</title>
<text text-anchor="middle" x="296" y="-122.3" font-family="Times,serif" font-size="14.00">img</text>
</g>
<!-- Split(classify)&#45;&gt;img -->
<g id="edge2" class="edge">
<title>Split(classify)&#45;&gt;img</title>
<path fill="none" stroke="black" d="M215.96,-90.13C230.11,-96.55 245.92,-103.73 259.67,-109.97"/>
<polygon fill="black" stroke="black" points="258.25,-113.17 268.8,-114.11 261.14,-106.79 258.25,-113.17"/>
</g>
<!-- audio -->
<g id="node4" class="node">
<title>audio</title>
<text text-anchor="middle" x="296" y="-68.3" font-family="Times,serif" font-size="14.00">audio</text>
</g>
<!-- Split(classify)&#45;&gt;audio -->
<g id="edge3" class="edge">
<title>Split(classify)&#45;&gt;audio</title>
<path fill="none" stroke="black" d="M232.02,-72C240.65,-72 249.38,-72 257.48,-72"/>
<polygon fill="black" stroke="black" points="257.71,-75.5 267.71,-72 257.71,-68.5 257.71,-75.5"/>
</g>
<!-- doc -->
<g id="node5" class="node">
<title>doc</title>
<text text-anchor="middle" x="296" y="-14.3" font-family="Times,serif" font-size="14.00">doc</text>
</g>
<!-- Split(classify)&#45;&gt;doc -->
<g id="edge4" class="edge">
<title>Split(classify)&#45;&gt;doc</title>
<path fill="none" stroke="black" d="M215.96,-53.87C230.11,-47.45 245.92,-40.27 259.67,-34.03"/>
<polygon fill="black" stroke="black" points="261.14,-37.21 268.8,-29.89 258.25,-30.83 261.14,-37.21"/>
</g>
</g>
</svg>
