<?xml version="1.0" encoding="UTF-8" standalone="no"?>
<!DOCTYPE svg PUBLIC "-//W3C//DTD SVG 1.1//EN"
 "http://www.w3.org/Graphics/SVG/1.1/DTD/svg11.dtd">
<!-- Generated by graphviz version 2.43.0 (0)
 -->
<!-- Title: Pipeline Pages: 1 -->
<svg width="339pt" height="98pt"
 viewBox="0.00 0.00 339.00 98.00" xmlns="http://www.w3.org/2000/svg" xmlns:xlink="http://www.w3.org/1999/xlink">
<g id="graph0" class="graph" transform="scale(1 1) rotate(0) translate(4 94)">
<title>Pipeline</title>
<polygon fill="white" stroke="transparent" points="-4,4 -4,-94 335,-94 335,4 -4,4"/>
<!-- unzipped -->
<g id="node1" class="node">
<title>unzipped</title>
<text text-anchor="middle" x="41" y="-41.3" font-family="Times,serif" font-size="14.00">unzipped</text>
</g>
<!-- Split(is_image) -->
<g id="node2" class="node">
<title>Split(is_image)</title>
<polygon fill="lightgrey" stroke="lightgrey" points="241,-63 118,-63 118,-27 241,-27 241,-63"/>
<text text-anchor="middle" x="179.5" y="-41.3" font-family="Times,serif" font-size="14.00">Split(is_image)</text>
</g>
<!-- unzipped&#45;&gt;Split(is_image) -->
<g id="edge1" class="edge">
<title>unzipped&#45;&gt;Split(is_image)</title>
<path fill="none" stroke="black" d="M82.22,-45C90.24,-45 98.89,-45 107.6,-45"/>
<polygon fill="black" stroke="black" points="107.82,-48.5 117.82,-45 107.82,-41.5 107.82,-48.5"/>
</g>
<!-- True -->
<g id="node3" class="node">
<title>True</title>
<text text-anchor="middle" x="304" y="-68.3" font-family="Times,serif" font-size="14.00">True</text>
</g>
<!-- Split(is_image)&#45;&gt;True -->
<g id="edge2" class="edge">
<title>Split(is_image)&#45;&gt;True</title>
<path fill="none" stroke="black" d="M241.03,-58.34C249.93,-60.3 258.85,-62.27 267.04,-64.07"/>
<polygon fill="black" stroke="black" points="266.45,-67.53 276.97,-66.26 267.95,-60.69 266.45,-67.53"/>
</g>
<!-- False -->
<g id="node4" class="node">
<title>False</title>
<text text-anchor="middle" x="304" y="-14.3" font-family="Times,serif" font-size="14.00">False</text>
</g>
<!-- Split(is_image)&#45;&gt;False -->
<g id="edge3" class="edge">
<title>Split(is_image)&#45;&gt;False</title>
<path fill="none" stroke="black" d="M241.03,-31.66C249.93,-29.7 258.85,-27.73 267.04,-25.93"/>
<polygon fill="black" stroke="black" points="267.95,-29.31 276.97,-23.74 266.45,-22.47 267.95,-29.31"/>
</g>
</g>
</svg>
