<?xml version="1.0" encoding="UTF-8" standalone="no"?>
<!DOCTYPE svg PUBLIC "-//W3C//DTD SVG 1.1//EN"
 "http://www.w3.org/Graphics/SVG/1.1/DTD/svg11.dtd">
<!-- Generated by graphviz version 2.43.0 (0)
 -->
<!-- Title: Pipeline Pages: 1 -->
<svg width="426pt" height="44pt"
 viewBox="0.00 0.00 426.00 44.00" xmlns="http://www.w3.org/2000/svg" xmlns:xlink="http://www.w3.org/1999/xlink">
<g id="graph0" class="graph" transform="scale(1 1) rotate(0) translate(4 40)">
<title>Pipeline</title>
<polygon fill="white" stroke="transparent" points="-4,4 -4,-40 422,-40 422,4 -4,4"/>
<!-- [processed img,...] -->
<g id="node1" class="node">
<title>[processed img,...]</title>
<text text-anchor="middle" x="74.5" y="-14.3" font-family="Times,serif" font-size="14.00">[processed img,...]</text>
</g>
<!-- Unbatch -->
<g id="node2" class="node">
<title>Unbatch</title>
<polygon fill="lightgrey" stroke="lightgrey" points="262,-36 185,-36 185,0 262,0 262,-36"/>
<text text-anchor="middle" x="223.5" y="-14.3" font-family="Times,serif" font-size="14.00">Unbatch</text>
</g>
<!-- [processed img,...]&#45;&gt;Unbatch -->
<g id="edge1" class="edge">
<title>[processed img,...]&#45;&gt;Unbatch</title>
<path fill="none" stroke="black" d="M149,-18C157.68,-18 166.36,-18 174.56,-18"/>
<polygon fill="black" stroke="black" points="174.64,-21.5 184.64,-18 174.64,-14.5 174.64,-21.5"/>
</g>
<!-- processed img -->
<g id="node3" class="node">
<title>processed img</title>
<text text-anchor="middle" x="358" y="-14.3" font-family="Times,serif" font-size="14.00">processed img</text>
</g>
<!-- Unbatch&#45;&gt;processed img -->
<g id="edge2" class="edge">
<title>Unbatch&#45;&gt;processed img</title>
<path fill="none" stroke="black" d="M262.11,-18C270.23,-18 279.06,-18 287.95,-18"/>
<polygon fill="black" stroke="black" points="287.99,-21.5 297.99,-18 287.99,-14.5 287.99,-21.5"/>
</g>
</g>
</svg>
